#!OML:ASF F:\VICON\USERDATA\INSTALL\rory7\rory7.ASF
:FULLY-SPECIFIED
:DEGREES
225
root -2.47453 20.4004 -0.140781 -19.738 -69.7965 14.0875
lowerback 11.0193 2.85063 -4.66604
upperback -4.059 2.33591 -6.24158
thorax -10.5593 1.10989 -4.61297
lowerneck -10.8244 -6.15465 -10.326
upperneck -15.6991 -6.83395 11.3719
head -2.13549 -3.32978 5.07944
rclavicle -4.59193e-014 2.06736e-014
rhumerus 94.3007 -30.2639 -51.5917
rradius 19.369
rwrist 36.4081
rhand -28.0577 4.21006
rfingers 7.12502
rthumb -1.44166 -25.7648
lclavicle -4.59193e-014 2.06736e-014
lhumerus 96.5065 22.0487 27.6428
lradius 35.2399
lwrist -14.3747
lhand -35.6445 22.8735
lfingers 7.12502
lthumb -8.7668 52.6714
rfemur 2.83245 21.3839 20.2671
rtibia 25.9909
rfoot 16.361 -21.2293
rtoes -1.24949
lfemur -4.18943 -7.88028 -21.7694
ltibia 32.5429
lfoot 21.3377 4.15856
ltoes -2.10501
226
root -2.47916 20.4072 -0.164125 -19.8927 -70.2653 14.1944
lowerback 10.9301 2.98737 -4.53395
upperback -4.11454 2.55275 -6.17793
thorax -10.5547 1.20917 -4.65803
lowerneck -10.7943 -6.1922 -10.8299
upperneck -15.5434 -6.81923 11.6855
head -2.06098 -3.30242 5.25554
rclavicle 5.04913e-014 7.95139e-015
rhumerus 93.9431 -29.7429 -51.4626
rradius 19.1484
rwrist 35.5584
rhand -28.0425 4.24185
rfingers 7.12502
rthumb -1.42694 -25.7331
lclavicle 5.04913e-014 7.95139e-015
lhumerus 96.5004 21.8344 27.7635
lradius 34.9845
lwrist -14.695
lhand -34.8179 22.1566
lfingers 7.12502
lthumb -7.96905 51.9864
rfemur 2.67423 21.4349 20.0925
rtibia 26.06
rfoot 16.3699 -20.6358
rtoes 0.236151
lfemur -4.20766 -7.89638 -21.8705
ltibia 32.6449
lfoot 21.2484 2.96368
ltoes -3.79798
227
root -2.48343 20.4076 -0.185799 -20.2453 -70.7886 14.3935
lowerback 10.9151 3.07111 -4.47716
upperback -4.15088 2.68512 -6.08071
thorax -10.5815 1.27399 -4.61101
lowerneck -10.9133 -6.13013 -11.0951
upperneck -15.12 -6.69908 11.8254
head -1.91317 -3.22564 5.33069
rclavicle 4.4329e-014 -6.83819e-014
rhumerus 93.7661 -28.9366 -51.6938
rradius 18.967
rwrist 35.1961
rhand -27.7716 4.90764
rfingers 7.12502
rthumb -1.16534 -25.0689
lclavicle 4.4329e-014 -6.83819e-014
lhumerus 96.253 21.6538 27.7836
lradius 34.7789
lwrist -15.0678
lhand -33.8316 21.8847
lfingers 7.12502
lthumb -7.017 51.7484
rfemur 2.59549 21.4232 19.9504
rtibia 26.2279
rfoot 16.6079 -19.7051
rtoes 0.917704
lfemur -4.03044 -7.95398 -22.0625
ltibia 32.6452
lfoot 20.9546 1.95316
ltoes -4.98879
228
root -2.48523 20.4009 -0.207491 -20.6665 -71.349 14.5581
lowerback 11.0539 3.14943 -4.41938
upperback -4.19281 2.79877 -5.96688
thorax -10.7077 1.32918 -4.55514
lowerneck -10.8317 -6.02047 -11.1909
upperneck -14.7819 -6.55274 11.8754
head -1.83474 -3.1475 5.35984
rclavicle 1.78906e-015 4.77083e-014
rhumerus 93.4384 -28.0728 -51.7844
rradius 18.8349
rwrist 35.0341
rhand -27.8525 5.45805
rfingers 7.12502
rthumb -1.24342 -24.5181
lclavicle 1.78906e-015 4.77083e-014
lhumerus 95.966 21.3845 27.9384
lradius 34.671
lwrist -15.3987
lhand -32.6636 21.6999
lfingers 7.12502
lthumb -5.88944 51.598
rfemur 2.57494 21.2416 19.8567
rtibia 26.4428
rfoot 17.1163 -18.3937
rtoes 0.446359
lfemur -3.72333 -7.8441 -22.2479
ltibia 32.5906
lfoot 20.4734 1.13791
ltoes -5.8715
229
root -2.48843 20.3886 -0.223167 -21.0306 -71.9145 14.6867
lowerback 11.1649 3.12559 -4.34697
upperback -4.23054 2.77464 -5.89552
thorax -10.8159 1.31502 -4.52385
lowerneck -10.7532 -5.73522 -10.8012
upperneck -14.6019 -6.22519 11.7764
head -1.84512 -3.00311 5.27564
rclavicle -9.54166e-015 1.43125e-014
rhumerus 92.8331 -27.2512 -51.3258
rradius 18.7333
rwrist 34.3233
rhand -28.2369 5.72016
rfingers 7.12502
rthumb -1.61474 -24.2535
lclavicle -9.54166e-015 1.43125e-014
lhumerus 95.5047 21.2851 27.7496
lradius 34.6675
lwrist -15.3803
lhand -31.5943 21.603
lfingers 7.12502
lthumb -4.85702 51.5274
rfemur 2.53136 20.8199 19.704
rtibia 26.6514
rfoot 17.5506 -16.8697
rtoes -0.58027
lfemur -3.44915 -7.71708 -22.4625
ltibia 32.5511
lfoot 19.8361 0.498385
ltoes -7.36931
230
root -2.49439 20.3743 -0.236018 -20.943 -72.5092 14.4188
lowerback 11.1103 3.10035 -4.13297
upperback -4.26202 2.79701 -5.75263
thorax -10.811 1.31997 -4.48912
lowerneck -10.5548 -5.47449 -10.5202
upperneck -14.5612 -5.93139 11.6047
head -1.91139 -2.87199 5.19175
rclavicle 1.19271e-015 4.77083e-015
rhumerus 90.9236 -26.8558 -48.309
rradius 19.0824
rwrist 31.5068
rhand -28.7521 6.02178
rfingers 7.12502
rthumb -2.11232 -23.9475
lclavicle 1.19271e-015 4.77083e-015
lhumerus 95.0142 21.4043 27.3362
lradius 34.5616
lwrist -14.9484
lhand -31.6915 20.7327
lfingers 7.12502
lthumb -4.95089 50.6548
rfemur 2.48232 20.3903 19.6712
rtibia 26.8322
rfoot 17.8095 -15.5224
rtoes -2.10409
lfemur -3.28755 -7.60244 -22.544
ltibia 32.5851
lfoot 19.2102 0.182973
ltoes -8.41361
231
root -2.49814 20.3553 -0.249709 -20.4055 -73.0765 13.6808
lowerback 11.0749 3.09067 -3.81964
upperback -4.30175 2.86778 -5.51325
thorax -10.8229 1.34704 -4.41621
lowerneck -10.2629 -5.26918 -10.3815
upperneck -14.51 -5.71179 11.3258
head -1.98184 -2.7687 5.09612
rclavicle 9.26337e-014 -3.33958e-014
rhumerus 88.6346 -26.4968 -44.4699
rradius 19.6734
rwrist 28.322
rhand -29.3595 6.18446
rfingers 7.12502
rthumb -2.6989 -23.7782
lclavicle 9.26337e-014 -3.33958e-014
lhumerus 94.509 21.6245 26.9835
lradius 34.4087
lwrist -14.446
lhand -32.377 19.0455
lfingers 7.12502
lthumb -5.6127 48.9512
rfemur 2.55125 20.0978 19.8112
rtibia 27.0268
rfoot 17.5111 -14.5853
rtoes -3.25968
lfemur -3.16888 -7.54037 -22.528
ltibia 32.7045
lfoot 18.6177 0.378434
ltoes -7.91543
